<svg width="100" height="100" viewBox="0 0 100 100" fill="none" xmlns="http://www.w3.org/2000/svg">
<g id="Calendar">
<path id="icon (union)" fill-rule="evenodd" clip-rule="evenodd" d="M36.4583 13.5415C36.4583 11.8156 35.0592 10.4165 33.3333 10.4165C31.6074 10.4165 30.2083 11.8156 30.2083 13.5415V18.7498H25C18.6717 18.7498 13.5416 23.8799 13.5416 30.2082V80.2082C13.5416 86.5364 18.6717 91.6665 25 91.6665H75C81.3282 91.6665 86.4583 86.5364 86.4583 80.2082V30.2082C86.4583 23.8799 81.3282 18.7498 75 18.7498H69.7916V13.5415C69.7916 11.8156 68.3925 10.4165 66.6666 10.4165C64.9407 10.4165 63.5416 11.8156 63.5416 13.5415V18.7498H36.4583V13.5415ZM25 24.9998H30.2083V30.2082C30.2083 31.9341 31.6074 33.3332 33.3333 33.3332C35.0592 33.3332 36.4583 31.9341 36.4583 30.2082V24.9998H63.5416V30.2082C63.5416 31.9341 64.9407 33.3332 66.6666 33.3332C68.3925 33.3332 69.7916 31.9341 69.7916 30.2082V24.9998H75C77.8764 24.9998 80.2083 27.3317 80.2083 30.2082V43.7498H19.7916V30.2082C19.7916 27.3317 22.1235 24.9998 25 24.9998ZM19.7916 49.9998V80.2082C19.7916 83.0847 22.1235 85.4165 25 85.4165H75C77.8764 85.4165 80.2083 83.0847 80.2083 80.2082V49.9998H19.7916Z" fill="#00799E"/>
</g>
</svg>
