<svg width="100" height="100" viewBox="0 0 100 100" fill="none" xmlns="http://www.w3.org/2000/svg">
<g id="Pin_1">
<path id="icon (union)" fill-rule="evenodd" clip-rule="evenodd" d="M23.9584 41.1765C23.9584 25.6036 37.8942 15.625 50 15.625C62.1059 15.625 76.0417 25.6036 76.0417 41.1765C76.0417 49.1656 71.6717 57.8633 66.0248 65.6572C60.4465 73.3564 53.9717 79.7017 50.4776 82.9058C50.3216 83.0489 50.1534 83.1023 50 83.1023C49.8467 83.1023 49.6785 83.0489 49.5225 82.9058C46.0284 79.7017 39.5535 73.3564 33.9753 65.6572C28.3284 57.8633 23.9584 49.1656 23.9584 41.1765ZM50 9.375C35.1828 9.375 17.7084 21.4552 17.7084 41.1765C17.7084 51.1953 23.0573 61.2406 28.9141 69.3242C34.8396 77.5027 41.6533 84.1697 45.2984 87.5122C47.9738 89.9656 52.0263 89.9656 54.7017 87.5122C58.3468 84.1697 65.1604 77.5027 71.086 69.3242C76.9428 61.2406 82.2917 51.1953 82.2917 41.1765C82.2917 21.4552 64.8173 9.375 50 9.375ZM42.7084 40.625C42.7084 36.5979 45.973 33.3333 50 33.3333C54.0271 33.3333 57.2917 36.5979 57.2917 40.625C57.2917 44.6521 54.0271 47.9167 50 47.9167C45.973 47.9167 42.7084 44.6521 42.7084 40.625ZM50 27.0833C42.5212 27.0833 36.4584 33.1461 36.4584 40.625C36.4584 48.1039 42.5212 54.1667 50 54.1667C57.4789 54.1667 63.5417 48.1039 63.5417 40.625C63.5417 33.1461 57.4789 27.0833 50 27.0833Z" fill="#00799E"/>
</g>
</svg>
